<svg width="142" height="48" viewBox="0 0 142 48" fill="none" xmlns="http://www.w3.org/2000/svg">
<g filter="url(#filter0_f_1772_33733)">
<path d="M6.87132 6.84005H36.0108V13.2708L18.795 33.3H36.8146V41.2715H6.06747V34.8407L23.2832 14.8115H6.87132V6.84005ZM40.457 14.8115C41.9308 12.132 43.9404 10.1224 46.5529 8.6487C49.1654 7.17498 52.1798 6.43812 55.6631 6.43812C59.1465 6.43812 62.1609 7.17498 64.8404 8.51472C67.5199 9.85447 69.5965 11.7971 71.0702 14.2756C72.5439 16.7542 73.3478 19.6346 73.4148 22.984C73.4148 24.1897 73.2808 25.2615 73.1468 26.1994H48.1606V26.4673C48.3615 29.0128 49.1654 30.9554 50.5721 32.3622C51.9119 33.8359 53.8545 34.5058 56.266 34.5058C58.1417 34.5058 59.7494 34.1038 61.0221 33.3C62.2949 32.4962 63.1657 31.2234 63.5676 29.6157H72.8789C72.4769 31.8933 71.6061 33.9699 70.2664 35.7785C68.8596 37.6542 67.051 39.0609 64.7734 40.1327C62.4958 41.2045 59.8833 41.6734 56.9359 41.6734C53.0506 41.6734 49.7683 41.0035 46.9548 39.5298C44.1413 38.1231 41.9977 36.1135 40.524 33.434C39.0503 30.7545 38.3134 27.6731 38.3134 24.1228C38.3134 20.5724 38.9833 17.491 40.457 14.8115ZM63.9696 20.0365C63.6346 17.9599 62.7638 16.3522 61.3571 15.2134C59.9503 14.0747 58.2087 13.4718 56.0651 13.4718C53.9885 13.4718 52.2468 14.0747 50.8401 15.2804C49.4333 16.4862 48.6295 18.0269 48.3615 20.0365H63.9696ZM98.8736 6.84005V15.4144H95.1223C92.4428 15.4144 90.4332 16.2183 89.2274 17.826C87.9547 19.4336 87.3518 21.6442 87.3518 24.3907V41.2715H77.9066V6.84005H86.4809L87.3518 11.9981C88.3566 10.3234 89.6293 9.05062 91.17 8.17979C92.6438 7.30895 94.7204 6.84005 97.2659 6.84005H98.8736ZM108.545 39.5298C105.798 38.0561 103.655 35.9795 102.181 33.3C100.707 30.6205 99.9705 27.5391 99.9705 24.0558C99.9705 20.5724 100.707 17.491 102.181 14.8115C103.655 12.132 105.798 10.1224 108.545 8.6487C111.291 7.17498 114.507 6.43812 118.124 6.43812C121.741 6.43812 124.89 7.17498 127.636 8.6487C130.383 10.1224 132.526 12.132 134 14.8115C135.474 17.491 136.278 20.5724 136.278 24.0558C136.278 27.6061 135.474 30.6875 134 33.367C132.526 36.0465 130.383 38.0561 127.636 39.5298C124.89 41.0035 121.741 41.6734 118.124 41.6734C114.507 41.6734 111.291 41.0035 108.545 39.5298ZM124.354 31.2234C125.895 29.4147 126.698 27.0032 126.698 24.0558C126.698 21.1083 125.895 18.7638 124.354 16.8881C122.813 15.0795 120.737 14.1417 118.124 14.1417C115.512 14.1417 113.435 15.0795 111.894 16.8881C110.354 18.7638 109.617 21.1083 109.617 24.0558C109.617 27.0032 110.354 29.4147 111.894 31.2234C113.435 33.099 115.512 33.9699 118.124 33.9699C120.737 33.9699 122.813 33.099 124.354 31.2234Z" fill="url(#paint0_linear_1772_33733)"/>
</g>
<defs>
<filter id="filter0_f_1772_33733" x="0.57288" y="0.940067" width="141.206" height="46.2312" filterUnits="userSpaceOnUse" color-interpolation-filters="sRGB">
<feFlood flood-opacity="0" result="BackgroundImageFix"/>
<feBlend mode="normal" in="SourceGraphic" in2="BackgroundImageFix" result="shape"/>
<feGaussianBlur stdDeviation="2.74872" result="effect1_foregroundBlur_1772_33733"/>
</filter>
<linearGradient id="paint0_linear_1772_33733" x1="-1.42872" y1="-5.72853" x2="146.441" y2="24.0682" gradientUnits="userSpaceOnUse">
<stop stop-color="#E8CAFF"/>
<stop offset="0.463542" stop-color="#889AFA"/>
<stop offset="1" stop-color="#6F368A"/>
</linearGradient>
</defs>
</svg>